<svg width="1052" height="255" viewBox="0 0 1052 255" fill="none" xmlns="http://www.w3.org/2000/svg">
<path d="M97.8048 24.9554C101.61 24.9819 105.412 25.0083 109.043 25.0083H145.978C149.608 25.0083 153.411 24.9819 157.216 24.9554C167.459 24.8841 177.718 24.8127 184.661 25.2573C209.937 26.876 227.369 42.1909 229.61 68.2139C230.141 77.565 230.128 88.83 230.113 102.115V102.119C230.111 104.399 230.108 106.739 230.108 109.138V146.074C230.108 148.473 230.111 150.813 230.113 153.093C230.128 166.38 230.141 177.646 229.61 186.998C227.369 213.021 209.937 228.336 184.661 229.955C177.718 230.399 167.459 230.328 157.216 230.257C153.411 230.23 149.608 230.204 145.978 230.204H109.043C105.412 230.204 101.61 230.23 97.8048 230.257C87.5612 230.328 77.3027 230.399 70.3593 229.955C45.0835 228.336 27.6518 213.021 25.4106 186.998C24.8792 177.647 24.8921 166.382 24.9072 153.097V153.093C24.9098 150.813 24.9125 148.473 24.9125 146.074V109.138C24.9125 106.739 24.9098 104.399 24.9072 102.119V102.115C24.8921 88.83 24.8792 77.565 25.4106 68.2139C27.6518 42.1909 45.0835 26.876 70.3593 25.2573C77.3027 24.8127 87.5612 24.8841 97.8048 24.9554Z" fill="url(#paint0_linear_1_2023)"/>
<g filter="url(#filter0_d_1_2023)">
<path d="M58.2715 98.1152C58.2715 92.889 62.5082 88.6523 67.7344 88.6523H133.975C147.178 88.6523 157.881 99.3555 157.881 112.559V156.636C157.881 161.862 153.644 166.099 148.418 166.099H82.1777C68.9747 166.099 58.2715 155.395 58.2715 142.192V98.1152Z" fill="url(#paint1_linear_1_2023)"/>
<path d="M67.7344 89.7729H133.975C146.559 89.7729 156.76 99.9744 156.76 112.559V156.636C156.76 161.243 153.025 164.978 148.418 164.978H82.1777C69.5936 164.978 59.3921 154.777 59.3921 142.192V98.1152C59.3921 93.5079 63.1271 89.7729 67.7344 89.7729Z" stroke="url(#paint2_linear_1_2023)" stroke-width="2.24121"/>
</g>
<g filter="url(#filter1_d_1_2023)">
<path d="M163.857 116.072C163.857 112.851 165.243 109.785 167.662 107.658L186.64 90.9628C190.662 87.4248 196.978 90.2806 196.978 95.6371V159.304C196.978 164.61 190.765 167.484 186.721 164.048L169.3 149.247C165.847 146.313 163.857 142.011 163.857 137.481V116.072Z" fill="url(#paint3_linear_1_2023)"/>
<path d="M168.402 108.499L187.38 91.8042C190.678 88.903 195.857 91.2447 195.857 95.6371V159.304C195.857 163.655 190.762 166.011 187.447 163.194L170.026 148.393C166.824 145.672 164.978 141.683 164.978 137.481V116.072C164.978 113.173 166.225 110.414 168.402 108.499Z" stroke="url(#paint4_linear_1_2023)" stroke-width="2.24121"/>
</g>
<path d="M291.493 73.8295L318.451 162.12H319.452L346.41 73.8295H379.018L338.346 194.375H299.557L258.885 73.8295H291.493ZM421.133 73.8295V194.375H391.997V73.8295H421.133ZM483.98 194.375H439.423V73.8295H483.922C496.204 73.8295 506.779 76.2428 515.647 81.0693C524.555 85.8566 531.422 92.7629 536.248 101.788C541.075 110.774 543.488 121.526 543.488 134.043C543.488 146.6 541.075 157.391 536.248 166.416C531.461 175.442 524.614 182.368 515.706 187.194C506.799 191.981 496.223 194.375 483.98 194.375ZM468.559 169.536H482.862C489.611 169.536 495.321 168.398 499.99 166.122C504.699 163.807 508.25 160.06 510.644 154.88C513.077 149.661 514.293 142.715 514.293 134.043C514.293 125.371 513.077 118.465 510.644 113.325C508.211 108.145 504.621 104.417 499.873 102.141C495.164 99.8261 489.356 98.6685 482.45 98.6685H468.559V169.536Z" fill="white"/>
<path d="M560.499 73.8295H596.58L627.187 148.464H628.6L659.207 73.8295H695.288V194.375H666.918V120.329H665.917L636.958 193.61H618.829L589.87 119.917H588.869V194.375H560.499V73.8295ZM713.461 194.375V73.8295H797.513V97.4913H742.597V122.213H793.217V145.933H742.597V170.713H797.513V194.375H713.461ZM815.76 194.375V73.8295H899.812V97.4913H844.896V122.213H895.515V145.933H844.896V170.713H899.812V194.375H815.76ZM914.115 97.4913V73.8295H1016V97.4913H979.45V194.375H950.726V97.4913H914.115Z" fill="#E11D48"/>
<defs>
<filter id="filter0_d_1_2023" x="52.7905" y="85.8942" width="110.571" height="88.4083" filterUnits="userSpaceOnUse" color-interpolation-filters="sRGB">
<feFlood flood-opacity="0" result="BackgroundImageFix"/>
<feColorMatrix in="SourceAlpha" type="matrix" values="0 0 0 0 0 0 0 0 0 0 0 0 0 0 0 0 0 0 127 0" result="hardAlpha"/>
<feOffset dy="2.72289"/>
<feGaussianBlur stdDeviation="2.7405"/>
<feColorMatrix type="matrix" values="0 0 0 0 0.0509804 0 0 0 0 0.121569 0 0 0 0 0.396078 0 0 0 0.3 0"/>
<feBlend mode="multiply" in2="BackgroundImageFix" result="effect1_dropShadow_1_2023"/>
<feBlend mode="normal" in="SourceGraphic" in2="effect1_dropShadow_1_2023" result="shape"/>
</filter>
<filter id="filter1_d_1_2023" x="145.928" y="82.6758" width="68.9795" height="112.001" filterUnits="userSpaceOnUse" color-interpolation-filters="sRGB">
<feFlood flood-opacity="0" result="BackgroundImageFix"/>
<feColorMatrix in="SourceAlpha" type="matrix" values="0 0 0 0 0 0 0 0 0 0 0 0 0 0 0 0 0 0 127 0" result="hardAlpha"/>
<feOffset dy="11.2061"/>
<feGaussianBlur stdDeviation="8.96484"/>
<feColorMatrix type="matrix" values="0 0 0 0 0.0509804 0 0 0 0 0.121569 0 0 0 0 0.396078 0 0 0 0.45 0"/>
<feBlend mode="multiply" in2="BackgroundImageFix" result="effect1_dropShadow_1_2023"/>
<feBlend mode="normal" in="SourceGraphic" in2="effect1_dropShadow_1_2023" result="shape"/>
</filter>
<linearGradient id="paint0_linear_1_2023" x1="127.51" y1="24.9023" x2="127.51" y2="230.31" gradientUnits="userSpaceOnUse">
<stop stop-color="#E11D48"/>
<stop offset="1" stop-color="#E11D48"/>
</linearGradient>
<linearGradient id="paint1_linear_1_2023" x1="108.076" y1="88.6523" x2="108.076" y2="166.099" gradientUnits="userSpaceOnUse">
<stop stop-color="white"/>
<stop offset="1" stop-color="#FF2E2E"/>
</linearGradient>
<linearGradient id="paint2_linear_1_2023" x1="108.076" y1="88.6523" x2="108.076" y2="166.099" gradientUnits="userSpaceOnUse">
<stop stop-color="white"/>
<stop offset="0.352785" stop-color="#FFA6A6"/>
<stop offset="0.352885" stop-color="#FFA6A6"/>
<stop offset="0.827785" stop-color="#FF2E2E"/>
<stop offset="1" stop-color="#EA4335"/>
</linearGradient>
<linearGradient id="paint3_linear_1_2023" x1="180.417" y1="89.3994" x2="180.417" y2="165.541" gradientUnits="userSpaceOnUse">
<stop stop-color="white"/>
<stop offset="1" stop-color="#FF2E2E"/>
</linearGradient>
<linearGradient id="paint4_linear_1_2023" x1="180.417" y1="89.3994" x2="180.417" y2="165.541" gradientUnits="userSpaceOnUse">
<stop stop-color="white"/>
<stop offset="0.827785" stop-color="#FF8C52"/>
<stop offset="1" stop-color="#FF742E"/>
</linearGradient>
</defs>
</svg>
